<?xml version="1.0" encoding="utf-8"?>
<!-- Generator: Adobe Illustrator 24.0.1, SVG Export Plug-In . SVG Version: 6.00 Build 0)  -->
<svg version="1.1" id="Layer_1" xmlns="http://www.w3.org/2000/svg" xmlns:xlink="http://www.w3.org/1999/xlink" x="0px" y="0px"
	 viewBox="0 0 200 200" style="enable-background:new 0 0 200 200;" xml:space="preserve">
<style type="text/css">
	.st0{fill:#FFF800;stroke:#050505;stroke-miterlimit:10;}
	.st1{stroke:#020202;stroke-miterlimit:10;}
	.st2{fill:none;stroke:#020202;stroke-miterlimit:10;}
	.st3{fill:#DDD9DB;stroke:#020202;stroke-miterlimit:10;}
	.st4{fill:#2246F4;stroke:#020202;stroke-miterlimit:10;}
	.st5{fill:#F22525;stroke:#020202;stroke-miterlimit:10;}
</style>
<circle class="st0" cx="100.1" cy="29.58" r="11"/>
<path class="st1" d="M96.39,43.21v-4.38c0,0,3.94-3.44,7.44,0v4.38C103.82,43.21,100.26,40.15,96.39,43.21z"/>
<path class="st1" d="M95.69,50.82v-5.19c0,0,4.67-4.08,8.83,0v5.19C104.52,50.82,100.29,47.18,95.69,50.82z"/>
<path class="st1" d="M95.23,59.09v-5.67c0,0,5.16-4.46,9.75,0v5.67C104.98,59.09,100.31,55.12,95.23,59.09z"/>
<path class="st1" d="M94.99,67.96v-6.02c0,0,5.41-4.73,10.23,0v6.02C105.22,67.96,100.32,63.75,94.99,67.96z"/>
<polygon class="st0" points="128.41,59.05 128.41,72.43 104.51,72.43 100.1,76.62 95.69,72.43 71.79,72.43 71.79,59.05 79.16,63.11 
	100.1,63.12 121.04,63.12 "/>
<g id="_x32_nd_bar_5_">
	<path class="st2" d="M113.08,119.4c0.74-2.09-3.8-1.9-3.8-1.9l1.17,2.6L113.08,119.4"/>
	<path class="st2" d="M90.89,141.08c0,0-2.59,0.06-2.59-2.63s3.31-0.63,3.31-0.63L90.89,141.08"/>
</g>
<g id="_x31_st_bar_2_">
	<path class="st2" d="M113.08,78.4c0.74-2.09-3.8-1.9-3.8-1.9l1.17,2.6L113.08,78.4"/>
	<path class="st2" d="M90.89,100.08c0,0-2.59,0.06-2.59-2.63s3.31-0.63,3.31-0.63L90.89,100.08"/>
</g>
<g id="_x32_nd_bar_4_">
	<path class="st2" d="M113.08,99.4c0.74-2.09-3.8-1.9-3.8-1.9l1.17,2.6L113.08,99.4"/>
	<path class="st2" d="M90.89,121.08c0,0-2.59,0.06-2.59-2.63s3.31-0.63,3.31-0.63L90.89,121.08"/>
</g>
<g id="_x32_nd_bar_3_">
	<path class="st2" d="M113.08,141.4c0.74-2.09-3.8-1.9-3.8-1.9l1.17,2.6L113.08,141.4"/>
	<path class="st2" d="M90.89,162.08c0,0-2.59,0.06-2.59-2.63s3.31-0.63,3.31-0.63L90.89,162.08"/>
</g>
<polygon class="st3" points="92.76,72.87 90.89,78.4 90.89,165.4 100.1,179.58 100.1,76.62 95.49,72.87 "/>
<polygon class="st3" points="108.3,72.87 110.17,78.4 110.17,165.4 101.1,179.58 101.1,76.62 105.56,72.87 "/>
<polygon class="st4" points="113.2,119.9 113.2,130.15 88.32,138.96 88.32,128.65 "/>
<polygon class="st5" points="113.2,141.15 113.2,151.4 88.32,160.21 88.32,149.9 "/>
<polygon class="st5" points="113.17,99.65 113.17,109.9 88.29,118.71 88.29,108.4 "/>
<polygon class="st4" points="113.17,78.4 113.17,88.65 88.29,97.46 88.29,87.15 "/>
</svg>
